#!OML:ASF H:\Terrain\Patient Classification 1\PLAYGROUND\JustinFriday\JustinFriday.ASF
:FULLY-SPECIFIED
:DEGREES
1
root 11.3329 17.7328 18.6183 168.362 -72.1183 -167.849
lowerback 10.3226 3.72322 -1.9181
upperback 3.02654 4.67496 1.72958
thorax -2.91911 2.27377 2.27192
lowerneck -5.18991 -4.81787 -6.0011
upperneck -5.22528 -6.09598 9.97824
head -0.219651 -3.06144 4.22913
rclavicle 6.21202e-016 -6.90777e-015
rhumerus -34.973 -33.5357 -65.484
rradius 36.2554
rwrist -167.183
rhand -27.0599 22.1237
rfingers 7.12502
rthumb -0.477901 -7.85553
lclavicle 6.21202e-016 -6.90777e-015
lhumerus -27.8907 9.1817 79.2325
lradius 25.3926
lwrist 0.347198
lhand -19.0871 -5.91528
lfingers 7.12502
lthumb 7.22108 23.9415
rfemur -18.7255 6.7781 20.7183
rtibia 38.2189
rfoot -16.2956 -8.95076
rtoes -4.74021
lfemur -5.25767 7.12557 -13.8141
ltibia 27.9751
lfoot -21.1858 3.68906
ltoes 1.54924
2
root 11.3218 17.7356 18.6057 168.65 -71.795 -168.167
lowerback 10.3415 3.73294 -2.01464
upperback 3.02153 4.67575 1.67097
thorax -2.93741 2.27465 2.26358
lowerneck -5.13742 -4.88468 -6.16449
upperneck -5.3726 -6.1738 10.2854
head -0.252647 -3.10529 4.37262
rclavicle -1.02871e-014 1.29707e-014
rhumerus -35.0402 -33.1986 -65.7295
rradius 36.5855
rwrist -167.518
rhand -26.9124 21.9994
rfingers 7.12502
rthumb -0.335485 -7.98011
lclavicle -1.02871e-014 1.29707e-014
lhumerus -27.6471 9.37388 78.9667
lradius 24.9767
lwrist 0.176763
lhand -19.4535 -5.90055
lfingers 7.12502
lthumb 6.86738 23.9681
rfemur -19.1084 6.90136 20.6964
rtibia 38.8077
rfoot -16.6721 -9.68041
rtoes -3.21797
lfemur -4.82178 7.15325 -13.8167
ltibia 27.4101
lfoot -21.1214 3.98901
ltoes 1.85622
3
root 11.3074 17.7482 18.5928 170.108 -71.5385 -169.551
lowerback 10.151 3.75899 -2.52014
upperback 3.01681 4.66181 1.53784
thorax -2.86534 2.2704 2.42062
lowerneck -5.07719 -4.97358 -6.17626
upperneck -5.67834 -6.28321 10.4762
head -0.345305 -3.17129 4.44754
rclavicle -2.77553e-014 -1.68967e-015
rhumerus -34.7662 -32.9736 -65.9607
rradius 36.6482
rwrist -167.55
rhand -27.0671 21.6375
rfingers 7.12502
rthumb -0.484901 -8.34169
lclavicle -2.77553e-014 -1.68967e-015
lhumerus -27.4206 9.81999 78.6345
lradius 24.6073
lwrist -0.264574
lhand -19.365 -5.89278
lfingers 7.12502
lthumb 6.95285 23.973
rfemur -19.6773 6.79672 20.2159
rtibia 39.2529
rfoot -17.0053 -9.8636
rtoes -0.218824
lfemur -4.58632 7.22165 -14.2367
ltibia 26.9189
lfoot -21.0695 4.36773
ltoes 1.42782
4
root 11.2901 17.7603 18.5792 170.663 -71.2085 -169.971
lowerback 9.91207 3.72708 -2.91298
upperback 3.01072 4.59336 1.65692
thorax -2.77596 2.23806 2.78631
lowerneck -4.85528 -5.02468 -6.24713
upperneck -6.23465 -6.33457 10.4076
head -0.561735 -3.21263 4.45427
rclavicle -1.6114e-014 -6.75868e-015
rhumerus -34.2757 -32.5056 -66.0635
rradius 36.5887
rwrist -167.483
rhand -27.2747 21.0048
rfingers 7.12502
rthumb -0.685414 -8.97385
lclavicle -1.6114e-014 -6.75868e-015
lhumerus -27.3795 11.0501 78.234
lradius 24.3335
lwrist -1.21519
lhand -18.876 -5.97161
lfingers 7.12502
lthumb 7.42481 23.8781
rfemur -20.2251 6.65363 20.0803
rtibia 39.6092
rfoot -16.8405 -10.2357
rtoes 1.33514
lfemur -4.38332 7.27066 -14.3233
ltibia 26.4829
lfoot -20.9556 4.73987
ltoes 1.15037
5
root 11.2748 17.7679 18.5638 170.905 -70.8213 -170.078
lowerback 9.76236 3.63146 -3.26498
upperback 2.9718 4.44742 1.9125
thorax -2.76983 2.16838 3.27497
lowerneck -4.65644 -5.00944 -6.67282
upperneck -6.69951 -6.28709 10.3102
head -0.742937 -3.19151 4.52225
rclavicle 2.53761e-015 2.24875e-015
rhumerus -33.8822 -31.5267 -66.0925
rradius 36.7113
rwrist -167.539
rhand -27.7725 20.5898
rfingers 7.12502
rthumb -1.16616 -9.38674
lclavicle 2.53761e-015 2.24875e-015
lhumerus -27.5002 12.0688 78.0742
lradius 24.2015
lwrist -1.51249
lhand -18.8025 -5.71172
lfingers 7.12502
lthumb 7.49581 24.1355
rfemur -20.7042 6.75879 20.0769
rtibia 39.8404
rfoot -16.4237 -11.1408
rtoes 0.668392
lfemur -4.1939 7.20321 -14.3041
ltibia 26.1059
lfoot -20.9015 5.16973
ltoes 1.29417
6
root 11.261 17.7754 18.5488 171.288 -70.4376 -170.364
lowerback 9.61886 3.59118 -3.61708
upperback 2.9846 4.37146 2.11151
thorax -2.71223 2.13081 3.69785
lowerneck -4.79742 -5.00681 -7.12165
upperneck -6.79933 -6.25708 10.3413
head -0.737657 -3.1657 4.62114
rclavicle -2.25124e-014 1.09332e-014
rhumerus -33.5028 -30.7053 -66.1351
rradius 36.8387
rwrist -167.655
rhand -28.0641 20.5167
rfingers 7.12502
rthumb -1.44786 -9.45813
lclavicle -2.25124e-014 1.09332e-014
lhumerus -27.4626 12.6428 78.0901
lradius 24.0856
lwrist -1.41994
lhand -18.9607 -5.33093
lfingers 7.12502
lthumb 7.34313 24.5216
rfemur -21.121 7.07666 19.9522
rtibia 39.9364
rfoot -16.3915 -11.7824
rtoes 0.952129
lfemur -4.00933 7.15978 -14.3387
ltibia 25.8125
lfoot -20.9519 5.52339
ltoes 1.10524
7
root 11.2378 17.7779 18.5338 171.333 -70.1326 -170.404
lowerback 9.55094 3.54798 -3.67544
upperback 2.9911 4.31098 2.11361
thorax -2.66674 2.10003 3.74469
lowerneck -5.10648 -5.01149 -7.07024
upperneck -6.6593 -6.25956 10.4394
head -0.63458 -3.16246 4.63308
rclavicle 9.66125e-014 1.49958e-014
rhumerus -33.6105 -30.506 -66.3285
rradius 37.2244
rwrist -167.358
rhand -28.1377 20.407
rfingers 7.12502
rthumb -1.51887 -9.5673
lclavicle 9.66125e-014 1.49958e-014
lhumerus -27.3999 13.2274 77.7798
lradius 23.9332
lwrist -1.40119
lhand -19.1312 -5.02506
lfingers 7.12502
lthumb 7.1785 24.8332
rfemur -21.3644 7.1459 19.8796
rtibia 39.9606
rfoot -16.2171 -12.128
rtoes 2.31595
lfemur -3.67564 7.2536 -14.26
ltibia 25.4968
lfoot -21.0281 5.58672
ltoes 1.03677
8
root 11.203 17.7793 18.5185 172.153 -69.9077 -171.249
lowerback 9.48662 3.42937 -3.79175
upperback 2.89197 4.14287 1.86513
thorax -2.70805 2.02168 3.5733
lowerneck -5.20627 -4.97609 -6.76716
upperneck -6.58873 -6.22675 10.6074
head -0.60065 -3.15424 4.63011
rclavicle 1.46852e-014 1.33683e-014
rhumerus -33.8388 -30.2088 -66.7175
rradius 37.6564
rwrist -166.853
rhand -28.3661 20.0515
rfingers 7.12502
rthumb -1.73947 -9.92112
lclavicle 1.46852e-014 1.33683e-014
lhumerus -27.5372 13.7797 77.1006
lradius 23.7706
lwrist -1.34865
lhand -19.2224 -4.81544
lfingers 7.12502
lthumb 7.09051 25.0458
rfemur -21.6449 6.82631 19.4687
rtibia 39.9649
rfoot -15.8842 -12.3169
rtoes 3.2326
lfemur -3.29075 7.26613 -14.5452
ltibia 25.0937
lfoot -21.0917 5.66621
ltoes 1.38315
9
root 11.1674 17.783 18.5033 172.867 -69.723 -171.957
lowerback 9.39924 3.34118 -3.89561
upperback 2.76592 4.02038 1.70243
thorax -2.77482 1.9674 3.47861
lowerneck -5.08651 -4.97342 -6.63448
upperneck -6.69639 -6.22987 10.7663
head -0.655426 -3.16725 4.66761
rclavicle 1.4884e-014 -7.55382e-015
rhumerus -33.1379 -29.1832 -67.0272
rradius 37.3373
rwrist -167.344
rhand -28.1486 20.1188
rfingers 7.12502
rthumb -1.52941 -9.85551
lclavicle 1.4884e-014 -7.55382e-015
lhumerus -27.6606 14.0894 76.5931
lradius 23.5514
lwrist -1.37341
lhand -18.9034 -4.99861
lfingers 7.12502
lthumb 7.39842 24.852
rfemur -21.9258 6.39056 19.0809
rtibia 39.9089
rfoot -15.7596 -12.3257
rtoes 4.2025
lfemur -2.93539 7.13259 -14.8235
ltibia 24.6939
lfoot -21.1711 5.92025
ltoes 1.65117
10
root 11.1367 17.7873 18.483 173.177 -69.621 -172.27
lowerback 9.32852 3.29662 -4.02402
upperback 2.69457 3.95486 1.68355
thorax -2.81103 1.93899 3.54085
lowerneck -5.05608 -4.96983 -6.77271
upperneck -6.7468 -6.21625 10.9872
head -0.665875 -3.16258 4.77819
rclavicle 2.52208e-014 -1.5704e-014
rhumerus -33.6433 -28.515 -67.0267
rradius 37.9685
rwrist -168.078
rhand -27.8739 20.1137
rfingers 7.12502
rthumb -1.26415 -9.86229
lclavicle 2.52208e-014 -1.5704e-014
lhumerus -27.7031 14.0295 76.4772
lradius 23.4796
lwrist -1.01829
lhand -18.6315 -5.11592
lfingers 7.12502
lthumb 7.66086 24.7253
rfemur -22.1274 6.11741 18.8002
rtibia 39.7965
rfoot -15.7543 -12.3092
rtoes 5.58512
lfemur -2.58383 7.26559 -14.8827
ltibia 24.3078
lfoot -21.1757 6.00675
ltoes 1.1076
11
root 11.111 17.7905 18.4579 173.152 -69.4328 -172.048
lowerback 9.15535 3.24653 -4.03237
upperback 2.59454 3.89993 1.70325
thorax -2.81618 1.91623 3.57866
lowerneck -5.32366 -4.93916 -6.94442
upperneck -6.66323 -6.1311 11.629
head -0.489328 -3.12341 4.53145
rclavicle -2.71093e-014 2.22639e-014
rhumerus -33.1638 -28.0533 -67.0326
rradius 37.7967
rwrist -168.697
rhand -28.4114 20.2938
rfingers 7.12502
rthumb -1.78325 -9.67853
lclavicle -2.71093e-014 2.22639e-014
lhumerus -27.6501 14.1327 76.3402
lradius 23.3814
lwrist -0.806112
lhand -18.7144 -4.91855
lfingers 7.12502
lthumb 7.58082 24.9256
rfemur -22.5973 6.13928 18.7159
rtibia 39.6201
rfoot -15.6766 -12.5159
rtoes 5.83856
lfemur -2.45712 7.62363 -14.6859
ltibia 23.9537
lfoot -21.0808 6.04144
ltoes -0.0511865
